<mxfile host="65bd71144e">
    <diagram id="-M74jg76EOG9x9oGY2eQ" name="Page-1">
        <mxGraphModel dx="748" dy="555" grid="1" gridSize="10" guides="1" tooltips="1" connect="1" arrows="1" fold="1" page="1" pageScale="1" pageWidth="1654" pageHeight="2336" math="0" shadow="0">
            <root>
                <mxCell id="0"/>
                <mxCell id="1" parent="0"/>
                <mxCell id="67" style="edgeStyle=orthogonalEdgeStyle;rounded=0;orthogonalLoop=1;jettySize=auto;html=1;entryX=0;entryY=0.5;entryDx=0;entryDy=0;entryPerimeter=0;endArrow=none;endFill=0;strokeWidth=2;dashed=1;exitX=1;exitY=0.5;exitDx=0;exitDy=0;exitPerimeter=0;" parent="1" source="69" target="71" edge="1">
                    <mxGeometry relative="1" as="geometry">
                        <mxPoint x="727" y="230" as="sourcePoint"/>
                        <Array as="points">
                            <mxPoint x="697" y="160"/>
                            <mxPoint x="697" y="160"/>
                        </Array>
                    </mxGeometry>
                </mxCell>
                <mxCell id="101" style="edgeStyle=none;html=1;exitX=0.5;exitY=0.5;exitDx=0;exitDy=30;exitPerimeter=0;entryX=0.5;entryY=0;entryDx=0;entryDy=0;strokeWidth=2;endArrow=none;endFill=0;" parent="1" source="69" target="74" edge="1">
                    <mxGeometry relative="1" as="geometry"/>
                </mxCell>
                <mxCell id="69" value="&lt;font style=&quot;font-size: 12px&quot;&gt;Начало&lt;/font&gt;" style="html=1;dashed=0;whitespace=wrap;shape=mxgraph.dfd.start;strokeWidth=2;" parent="1" vertex="1">
                    <mxGeometry x="477" y="130" width="200" height="60" as="geometry"/>
                </mxCell>
                <mxCell id="70" style="edgeStyle=orthogonalEdgeStyle;rounded=0;orthogonalLoop=1;jettySize=auto;html=1;exitX=0.5;exitY=1;exitDx=0;exitDy=0;" parent="1" edge="1">
                    <mxGeometry relative="1" as="geometry">
                        <mxPoint x="527" y="280" as="sourcePoint"/>
                        <mxPoint x="527" y="280" as="targetPoint"/>
                    </mxGeometry>
                </mxCell>
                <mxCell id="71" value="&lt;div&gt;&lt;span style=&quot;white-space: pre&quot;&gt;&#9;&lt;/span&gt;update_pheromon(visited,matrix,&amp;nbsp;&lt;/div&gt;&lt;div&gt;&lt;span style=&quot;white-space: pre&quot;&gt;&#9;&lt;/span&gt;pheromones, city_count, p, q)&lt;/div&gt;&lt;div&gt;&lt;span&gt;&lt;br&gt;&lt;/span&gt;&lt;/div&gt;&lt;span style=&quot;white-space: pre&quot;&gt;&#9;&lt;/span&gt;Вход: матрица стоимостей &lt;br&gt;&lt;span style=&quot;white-space: pre&quot;&gt;&#9;&lt;/span&gt;matrix, список посещенных&lt;br&gt;&lt;span style=&quot;white-space: pre&quot;&gt;&#9;&lt;/span&gt;городов visited, число городов&lt;br&gt;&lt;span style=&quot;white-space: pre&quot;&gt;&#9;&lt;/span&gt;city_count, матрцица pheromones,&lt;br&gt;&lt;span style=&quot;white-space: pre&quot;&gt;&#9;&lt;/span&gt;параметры p, оптимальный путь q&lt;br&gt;&lt;span style=&quot;white-space: pre&quot;&gt;&#9;&lt;/span&gt;Выход: матрица феромонов pheromones" style="strokeWidth=2;html=1;shape=mxgraph.flowchart.annotation_1;align=left;pointerEvents=1;" parent="1" vertex="1">
                    <mxGeometry x="770" y="85" width="50" height="150" as="geometry"/>
                </mxCell>
                <mxCell id="72" value="&lt;font style=&quot;font-size: 12px&quot;&gt;Конец&lt;/font&gt;" style="html=1;dashed=0;whitespace=wrap;shape=mxgraph.dfd.start;strokeWidth=2;" parent="1" vertex="1">
                    <mxGeometry x="477" y="1720" width="200" height="60" as="geometry"/>
                </mxCell>
                <mxCell id="73" style="edgeStyle=none;html=1;exitX=0.5;exitY=1;exitDx=0;exitDy=0;entryX=0.5;entryY=0;entryDx=0;entryDy=0;strokeWidth=2;endArrow=none;endFill=0;" parent="1" source="74" target="78" edge="1">
                    <mxGeometry relative="1" as="geometry"/>
                </mxCell>
                <mxCell id="74" value="Цикл i от 0 до city_count" style="shape=loopLimit;whiteSpace=wrap;html=1;strokeWidth=2;" parent="1" vertex="1">
                    <mxGeometry x="477" y="230" width="200" height="70" as="geometry"/>
                </mxCell>
                <mxCell id="104" style="edgeStyle=none;html=1;exitX=0.5;exitY=1;exitDx=0;exitDy=0;entryX=0.5;entryY=0;entryDx=0;entryDy=0;endArrow=none;endFill=0;strokeWidth=2;" parent="1" source="76" target="103" edge="1">
                    <mxGeometry relative="1" as="geometry"/>
                </mxCell>
                <mxCell id="76" value="&lt;font&gt;&lt;div&gt;add = 0&lt;/div&gt;&lt;/font&gt;" style="rounded=0;whiteSpace=wrap;html=1;strokeWidth=2;align=center;" parent="1" vertex="1">
                    <mxGeometry x="477" y="450" width="200" height="70" as="geometry"/>
                </mxCell>
                <mxCell id="102" style="edgeStyle=none;html=1;exitX=0.5;exitY=1;exitDx=0;exitDy=0;entryX=0.5;entryY=0;entryDx=0;entryDy=0;endArrow=none;endFill=0;strokeWidth=2;" parent="1" source="78" target="76" edge="1">
                    <mxGeometry relative="1" as="geometry"/>
                </mxCell>
                <mxCell id="78" value="Цикл j от 0 до city_count" style="shape=loopLimit;whiteSpace=wrap;html=1;strokeWidth=2;" parent="1" vertex="1">
                    <mxGeometry x="477" y="340" width="200" height="70" as="geometry"/>
                </mxCell>
                <mxCell id="79" style="edgeStyle=none;html=1;exitX=0.5;exitY=0;exitDx=0;exitDy=0;entryX=0.5;entryY=1;entryDx=0;entryDy=0;endArrow=none;endFill=0;strokeWidth=2;" parent="1" source="80" target="82" edge="1">
                    <mxGeometry relative="1" as="geometry"/>
                </mxCell>
                <mxCell id="80" value="j += 1" style="shape=loopLimit;whiteSpace=wrap;html=1;strokeWidth=2;direction=west;" parent="1" vertex="1">
                    <mxGeometry x="477" y="1390" width="200" height="70" as="geometry"/>
                </mxCell>
                <mxCell id="81" style="edgeStyle=none;html=1;exitX=0.5;exitY=0;exitDx=0;exitDy=0;entryX=0.5;entryY=0;entryDx=0;entryDy=0;endArrow=none;endFill=0;strokeWidth=2;" parent="1" source="82" target="84" edge="1">
                    <mxGeometry relative="1" as="geometry"/>
                </mxCell>
                <mxCell id="82" value="i += 1" style="shape=loopLimit;whiteSpace=wrap;html=1;strokeWidth=2;direction=west;" parent="1" vertex="1">
                    <mxGeometry x="477" y="1500" width="200" height="70" as="geometry"/>
                </mxCell>
                <mxCell id="83" style="edgeStyle=none;html=1;exitX=0.5;exitY=1;exitDx=0;exitDy=0;entryX=0.5;entryY=0.5;entryDx=0;entryDy=-30;entryPerimeter=0;endArrow=none;endFill=0;strokeWidth=2;" parent="1" source="84" target="72" edge="1">
                    <mxGeometry relative="1" as="geometry"/>
                </mxCell>
                <mxCell id="84" value="&lt;font&gt;Вернуть pheromones&lt;br&gt;&lt;/font&gt;" style="rounded=0;whiteSpace=wrap;html=1;strokeWidth=2;align=center;" parent="1" vertex="1">
                    <mxGeometry x="477" y="1610" width="200" height="70" as="geometry"/>
                </mxCell>
                <mxCell id="87" style="edgeStyle=orthogonalEdgeStyle;rounded=0;orthogonalLoop=1;jettySize=auto;html=1;exitX=0.5;exitY=1;exitDx=0;exitDy=0;" parent="1" edge="1">
                    <mxGeometry relative="1" as="geometry">
                        <mxPoint x="557" y="715" as="sourcePoint"/>
                        <mxPoint x="557" y="715" as="targetPoint"/>
                    </mxGeometry>
                </mxCell>
                <mxCell id="88" style="edgeStyle=orthogonalEdgeStyle;rounded=0;orthogonalLoop=1;jettySize=auto;html=1;exitX=0.5;exitY=1;exitDx=0;exitDy=0;" parent="1" edge="1">
                    <mxGeometry relative="1" as="geometry">
                        <mxPoint x="547" y="805" as="sourcePoint"/>
                        <mxPoint x="547" y="805" as="targetPoint"/>
                    </mxGeometry>
                </mxCell>
                <mxCell id="106" style="edgeStyle=orthogonalEdgeStyle;html=1;exitX=1;exitY=0.5;exitDx=0;exitDy=0;entryX=0.5;entryY=0;entryDx=0;entryDy=0;endArrow=none;endFill=0;strokeWidth=2;rounded=0;" parent="1" source="91" target="94" edge="1">
                    <mxGeometry relative="1" as="geometry"/>
                </mxCell>
                <mxCell id="107" style="edgeStyle=orthogonalEdgeStyle;rounded=0;html=1;exitX=0;exitY=0.5;exitDx=0;exitDy=0;entryX=0.5;entryY=1;entryDx=0;entryDy=0;endArrow=none;endFill=0;strokeWidth=2;" parent="1" source="91" target="94" edge="1">
                    <mxGeometry relative="1" as="geometry">
                        <Array as="points">
                            <mxPoint x="420" y="705"/>
                            <mxPoint x="420" y="860"/>
                            <mxPoint x="740" y="860"/>
                        </Array>
                    </mxGeometry>
                </mxCell>
                <mxCell id="91" value="пройден ли этот&lt;br&gt;путь ?" style="rhombus;whiteSpace=wrap;html=1;strokeWidth=2;" parent="1" vertex="1">
                    <mxGeometry x="477" y="670" width="200" height="70" as="geometry"/>
                </mxCell>
                <mxCell id="92" value="Да" style="text;html=1;align=center;verticalAlign=middle;resizable=0;points=[];autosize=1;strokeColor=none;" parent="1" vertex="1">
                    <mxGeometry x="714" y="680" width="30" height="20" as="geometry"/>
                </mxCell>
                <mxCell id="113" style="edgeStyle=orthogonalEdgeStyle;rounded=0;html=1;exitX=0.5;exitY=1;exitDx=0;exitDy=0;endArrow=classic;endFill=1;strokeWidth=2;entryX=0.5;entryY=1;entryDx=0;entryDy=0;" parent="1" target="93" edge="1">
                    <mxGeometry relative="1" as="geometry">
                        <mxPoint x="577" y="1240" as="sourcePoint"/>
                    </mxGeometry>
                </mxCell>
                <mxCell id="114" style="edgeStyle=orthogonalEdgeStyle;rounded=0;html=1;exitX=0.5;exitY=0;exitDx=0;exitDy=0;entryX=0.5;entryY=1;entryDx=0;entryDy=0;endArrow=none;endFill=0;strokeWidth=2;" parent="1" source="93" target="80" edge="1">
                    <mxGeometry relative="1" as="geometry"/>
                </mxCell>
                <mxCell id="93" value="ant += 1" style="shape=loopLimit;whiteSpace=wrap;html=1;strokeWidth=2;direction=west;" parent="1" vertex="1">
                    <mxGeometry x="477" y="1280" width="200" height="70" as="geometry"/>
                </mxCell>
                <mxCell id="94" value="&lt;font&gt;найти стоимость маршрута cost&lt;br&gt;add += q / cost&lt;br&gt;&lt;/font&gt;" style="rounded=0;whiteSpace=wrap;html=1;strokeWidth=2;align=center;" parent="1" vertex="1">
                    <mxGeometry x="637" y="750" width="200" height="70" as="geometry"/>
                </mxCell>
                <mxCell id="109" style="edgeStyle=orthogonalEdgeStyle;rounded=0;html=1;exitX=0.5;exitY=0;exitDx=0;exitDy=0;endArrow=classic;endFill=1;strokeWidth=2;entryX=0.5;entryY=0;entryDx=0;entryDy=0;" parent="1" target="95" edge="1">
                    <mxGeometry relative="1" as="geometry">
                        <mxPoint x="577" y="860" as="sourcePoint"/>
                    </mxGeometry>
                </mxCell>
                <mxCell id="110" style="edgeStyle=orthogonalEdgeStyle;rounded=0;html=1;exitX=0.5;exitY=1;exitDx=0;exitDy=0;endArrow=none;endFill=0;strokeWidth=2;" parent="1" source="95" target="98" edge="1">
                    <mxGeometry relative="1" as="geometry"/>
                </mxCell>
                <mxCell id="95" value="&lt;font&gt;&lt;div&gt;pheromones[i][j] *= 1 - p&lt;/div&gt;&lt;div&gt;pheromones[i][j] += add&lt;/div&gt;&lt;/font&gt;" style="rounded=0;whiteSpace=wrap;html=1;strokeWidth=2;align=center;" parent="1" vertex="1">
                    <mxGeometry x="477" y="910" width="200" height="70" as="geometry"/>
                </mxCell>
                <mxCell id="96" style="edgeStyle=orthogonalEdgeStyle;rounded=0;orthogonalLoop=1;jettySize=auto;html=1;exitX=0.5;exitY=1;exitDx=0;exitDy=0;" parent="1" edge="1">
                    <mxGeometry relative="1" as="geometry">
                        <mxPoint x="554" y="1075" as="sourcePoint"/>
                        <mxPoint x="554" y="1075" as="targetPoint"/>
                    </mxGeometry>
                </mxCell>
                <mxCell id="97" style="edgeStyle=orthogonalEdgeStyle;rounded=0;orthogonalLoop=1;jettySize=auto;html=1;exitX=0.5;exitY=1;exitDx=0;exitDy=0;" parent="1" edge="1">
                    <mxGeometry relative="1" as="geometry">
                        <mxPoint x="544" y="1165" as="sourcePoint"/>
                        <mxPoint x="544" y="1165" as="targetPoint"/>
                    </mxGeometry>
                </mxCell>
                <mxCell id="111" style="edgeStyle=orthogonalEdgeStyle;rounded=0;html=1;exitX=1;exitY=0.5;exitDx=0;exitDy=0;entryX=0.5;entryY=0;entryDx=0;entryDy=0;endArrow=none;endFill=0;strokeWidth=2;" parent="1" source="98" target="100" edge="1">
                    <mxGeometry relative="1" as="geometry"/>
                </mxCell>
                <mxCell id="112" style="edgeStyle=orthogonalEdgeStyle;rounded=0;html=1;exitX=0;exitY=0.5;exitDx=0;exitDy=0;entryX=0.5;entryY=1;entryDx=0;entryDy=0;endArrow=none;endFill=0;strokeWidth=2;" parent="1" source="98" target="100" edge="1">
                    <mxGeometry relative="1" as="geometry">
                        <Array as="points">
                            <mxPoint x="420" y="1065"/>
                            <mxPoint x="420" y="1240"/>
                            <mxPoint x="737" y="1240"/>
                        </Array>
                    </mxGeometry>
                </mxCell>
                <mxCell id="98" value="pheromones[i][j] &amp;lt; MIN_PHEROMON ?" style="rhombus;whiteSpace=wrap;html=1;strokeWidth=2;" parent="1" vertex="1">
                    <mxGeometry x="477" y="1030" width="200" height="70" as="geometry"/>
                </mxCell>
                <mxCell id="99" value="Да" style="text;html=1;align=center;verticalAlign=middle;resizable=0;points=[];autosize=1;strokeColor=none;" parent="1" vertex="1">
                    <mxGeometry x="714" y="1040" width="30" height="20" as="geometry"/>
                </mxCell>
                <mxCell id="100" value="&lt;font&gt;найти стоимость маршрута cost&lt;br&gt;add += q / cost&lt;br&gt;&lt;/font&gt;" style="rounded=0;whiteSpace=wrap;html=1;strokeWidth=2;align=center;" parent="1" vertex="1">
                    <mxGeometry x="637" y="1120" width="200" height="70" as="geometry"/>
                </mxCell>
                <mxCell id="105" style="edgeStyle=none;html=1;exitX=0.5;exitY=1;exitDx=0;exitDy=0;entryX=0.5;entryY=0;entryDx=0;entryDy=0;endArrow=none;endFill=0;strokeWidth=2;" parent="1" source="103" target="91" edge="1">
                    <mxGeometry relative="1" as="geometry"/>
                </mxCell>
                <mxCell id="103" value="Цикл ant от 0 до city_count" style="shape=loopLimit;whiteSpace=wrap;html=1;strokeWidth=2;" parent="1" vertex="1">
                    <mxGeometry x="477" y="560" width="200" height="70" as="geometry"/>
                </mxCell>
            </root>
        </mxGraphModel>
    </diagram>
</mxfile>